<svg xmlns="http://www.w3.org/2000/svg" width="90" height="88.73" viewBox="0 0 90 88.73">
	<style type="text/css">
		.st0{fill:#000000;}
	</style>
	<path class="st0" d="M19.74 -61.9L0.5 -61.9L0.5 0L19.74 0ZM0.5,0M20.37,-79.11C20.37,-73.8 16.45,-69.49 9.99,-69.49C3.92,-69.49 0,-73.8 0,-79.11C0,-84.56 4.05,-88.73 10.25,-88.73C16.45,-88.73 20.25,-84.56 20.37,-79.11"/>
	<path class="st0" d="M31.26,46.58C31.26,38.86 31,32.4 30.75,26.83L47.46,26.83L48.35,35.44L48.73,35.44C51.26,31.39 57.46,25.44 67.84,25.44C80.5,25.44 89.99,33.92 89.99,52.15L89.99,88.73L70.75,88.73L70.75,54.43C70.75,46.45 67.97,41.01 61,41.01C55.69,41.01 52.53,44.68 51.13,48.22C50.63,49.49 50.5,51.26 50.5,53.04L50.5,88.73L31.26,88.73Z"/>
</svg>